<svg xmlns="http://www.w3.org/2000/svg" version="1.1" xmlns:xlink="http://www.w3.org/1999/xlink" xmlns:svgjs="http://svgjs.dev/svgjs" viewBox="0 0 800 800" opacity="0.22"><defs><linearGradient x1="50%" y1="0%" x2="50%" y2="100%" id="uundulate-grad"><stop stop-color="hsl(89, 73%, 48%)" stop-opacity="1" offset="45%"></stop><stop stop-color="hsl(0, 0%, 39%)" stop-opacity="1" offset="100%"></stop></linearGradient></defs><g stroke-width="1" stroke="url(#uundulate-grad)" fill="none"><path d="M1585.0310118073894 -797.0351972606146C1838.3183246544663 -394.4953519306199 1926.2275372737945 928.6372304378551 1400.1759259948385 1415.3692517235177C874.1243147158821 1902.1012730091807 -686.7294094845187 1941.8183502405668 -940.0167223315955 1539.2785049105719C-1193.3040351786724 1136.7386595805774 -341.65478695009097 -30.089984574798564 184.39682432886502 -516.8220058604616C710.448435607821 -1003.5540271461243 1331.743698960313 -1199.5750425906094 1585.0310118073894 -797.0351972606146C1838.3183246544663 -394.4953519306199 1926.2275372737945 928.6372304378551 1400.1759259948385 1415.3692517235177 "></path><path d="M1556.8159760909934 -768.5344398841993C1804.0726386321876 -375.57887658587117 1889.888774760579 916.0505490595447 1376.362201845408 1391.1937126955486C862.8356289302365 1866.336876331553 -660.8549113606314 1905.1083088669538 -908.1115739018254 1512.152745568626C-1155.3682364430194 1119.1971822702976 -323.99635126749956 -19.849827500426727 189.53022164767185 -494.9929911364309C703.0567945628432 -970.136154772435 1309.5593135497998 -1161.4900031825275 1556.8159760909934 -768.5344398841993C1804.0726386321876 -375.57887658587117 1889.888774760579 916.0505490595447 1376.362201845408 1391.1937126955486 "></path><path d="M1528.6009403745975 -740.0335299198933C1769.8269526099089 -356.6622486532317 1853.550012247364 903.4640202691253 1352.5484776959775 1367.0183262554706C851.5469431445904 1830.5726322418163 -634.980413236744 1868.3984200812324 -876.2064254720553 1485.0271388145707C-1117.4324377073665 1101.6558575479085 -306.33791558490805 -9.60951783816381 194.66361896647845 -473.16382382450945C695.6651535178653 -936.7181298108551 1287.374928139286 -1123.404811186555 1528.6009403745975 -740.0335299198933C1769.8269526099089 -356.6622486532317 1853.550012247364 903.4640202691253 1352.5484776959775 1367.0183262554706 "></path><path d="M1500.3859351757792 -711.5327115083218C1735.5812971052078 -337.7457122733266 1817.2112802517263 890.8773999259711 1328.7347840641246 1342.8428482626582C840.2582878765224 1794.8082965993449 -609.1058845952786 1831.6884397427752 -844.301246524707 1457.9014405077805C-1079.4966084541356 1084.1144412727854 -288.6794493847384 0.630700271364276 199.7970468028634 -451.3347480653225C688.2735429904656 -903.3001964020095 1265.1905732463506 -1085.3197107433168 1500.3859351757792 -711.5327115083218C1735.5812971052078 -337.7457122733266 1817.2112802517263 890.8773999259711 1328.7347840641246 1342.8428482626582 "></path><path d="M1472.1708994593832 -683.0318625791721C1701.335611082929 -318.8291453758435 1780.8725177385113 878.2908101003959 1304.9210599146936 1318.667400787424C828.9696020908764 1759.0439914744525 -583.2313864713913 1794.978489921897 -812.3960980949369 1430.7757727185685C-1041.5608097184827 1066.57305551524 -271.021013702147 10.870948898470942 204.93044412167046 -429.50564178855734C680.8819019454877 -869.8822324755857 1243.0061878358374 -1047.2345797825008 1472.1708994593832 -683.0318625791721C1701.335611082929 -318.8291453758435 1780.8725177385113 878.2908101003959 1304.9210599146936 1318.667400787424 "></path><path d="M1443.9557721902524 -654.5310136500225C1667.0898335079155 -299.9125784783604 1744.5336636725615 865.7042202748198 1281.1072442125287 1294.4919533121897C817.6808247524962 1723.2796863495591 -557.3569799002382 1758.2685401010185 -780.491041217901 1403.6501049293565C-1003.6251025355641 1049.0316697576945 -253.36266957228997 21.11119752557738 210.0637498877427 -407.6765355117923C673.4901693477752 -836.464268549162 1220.8217108725894 -1009.1494488216845 1443.9557721902524 -654.5310136500225C1667.0898335079155 -299.9125784783604 1744.5336636725615 865.7042202748198 1281.1072442125287 1294.4919533121897 "></path><path d="M1415.7407364738565 -626.0301647208728C1632.8441474856368 -280.9960115808773 1708.194901159346 853.117630449244 1257.2935200630982 1270.316505836955C806.3921389668501 1687.5153812246658 -531.4824817763508 1721.55859028014 -748.585892788131 1376.5244371401445C-965.6893037999112 1031.4902840001491 -235.70423388969857 31.35144615268382 215.19714720654952 -385.84742923502733C666.0985283027976 -803.0463046227383 1198.6373254620762 -971.0643178608682 1415.7407364738565 -626.0301647208728C1632.8441474856368 -280.9960115808773 1708.194901159346 853.117630449244 1257.2935200630982 1270.316505836955 "></path><path d="M1387.5257312750382 -597.5293157917231C1598.5984919809357 -262.07944468339406 1671.8561691637087 840.5310406236683 1233.4798264312458 1246.1410583617208C795.1034836987822 1651.751076099773 -505.6079531348854 1684.8486404592618 -716.6807138407828 1349.398769350933C-927.7534745466801 1013.9488982426037 -218.04576768952893 41.59169477979026 220.33057504293447 -364.01832295826216C658.7069177753976 -769.6283406963146 1176.4529705691407 -932.979186900052 1387.5257312750382 -597.5293157917231C1598.5984919809357 -262.07944468339406 1671.8561691637087 840.5310406236683 1233.4798264312458 1246.1410583617208 "></path><path d="M1359.3107260762204 -569.0285278977296C1564.3528364762346 -243.1629388210672 1635.5174371680714 827.944389762936 1209.666132799393 1221.9655498513298C783.8148284307142 1615.9867099397238 -479.7334244934199 1648.138629603227 -684.7755348934345 1322.2730405265643C-889.8176452934491 996.407451449902 -200.3873014893594 51.83188237174045 225.4640028793192 -342.18927771665335C651.3153072479979 -736.2104378050471 1154.2686156762056 -894.8941169743921 1359.3107260762204 -569.0285278977296C1564.3528364762346 -243.1629388210672 1635.5174371680714 827.944389762936 1209.666132799393 1221.9655498513298 "></path><path d="M1331.0956903598244 -540.5277094861581C1530.107150453956 -224.24640244116222 1599.1786746548564 815.357769419782 1185.852408649962 1197.790071858517C772.5261426450684 1580.2223742972524 -453.8589263695326 1611.4286492647702 -652.8703864636643 1295.1473422197741C-851.8818465577962 978.8660351747785 -182.728865806768 62.07210048126876 230.59740019812625 -320.3602019574664C643.92366620302 -702.7925043962016 1132.084230265692 -856.8090165311539 1331.0956903598244 -540.5277094861581C1530.107150453956 -224.24640244116222 1599.1786746548564 815.357769419782 1185.852408649962 1197.790071858517 "></path><path d="M1302.880654643428 -512.0267995218521C1495.8614644316767 -205.32977450852286 1562.839912141641 802.7712406293626 1162.0386845005314 1173.614685418439C761.2374568594221 1544.4581302075158 -427.9844282456452 1574.7187604790483 -620.9652380338943 1268.0217354657188C-813.9460478221432 961.3247104523896 -165.07043012417648 72.31241014353145 235.73079751693285 -298.5310346455451C636.5320251580422 -669.3744794346215 1109.8998448551788 -818.7238245351815 1302.880654643428 -512.0267995218521C1495.8614644316767 -205.32977450852286 1562.839912141641 802.7712406293626 1162.0386845005314 1173.614685418439 "></path><path d="M1274.6656494446097 -483.52595059270254C1461.6158089269761 -186.41320761103975 1526.5011801460041 790.1846508037868 1138.224990868679 1149.4392379432047C749.9488015913544 1508.6938250826224 -402.10989960417965 1538.0088106581698 -589.060059086546 1240.8960676765068C-776.0102185689123 943.7833246948439 -147.41196392400684 82.55265877063766 240.8642253533178 -276.70192836878005C629.1404146306425 -635.9565155081978 1087.7154899622437 -780.6386935743653 1274.6656494446097 -483.52595059270254C1461.6158089269761 -186.41320761103975 1526.5011801460041 790.1846508037868 1138.224990868679 1149.4392379432047 "></path><path d="M1246.4506137282133 -455.02513218113097C1427.370122904697 -167.49667123113477 1490.1624176327882 777.5980304606328 1114.4112667192485 1125.2637599503923C738.6601158057083 1472.9294894401514 -376.23540148029235 1501.298830319713 -557.1549106567759 1213.7703693697167C-738.0744198332593 926.2419084197206 -129.75352824141544 92.7928768801662 245.99762267212463 -254.872852609593C621.7487735856646 -602.5385820993522 1065.5311045517303 -742.5535931311272 1246.4506137282133 -455.02513218113097C1427.370122904697 -167.49667123113477 1490.1624176327882 777.5980304606328 1114.4112667192485 1125.2637599503923 "></path><path d="M1218.235608529396 -426.52437480471565C1393.1244673999963 -148.58019588638604 1453.8236856371514 765.0113490823228 1090.5975730873959 1101.0882209224233C727.3714605376406 1437.1650927625237 -350.36087283882694 1464.5887889461 -525.2497317094276 1186.6446100277703C-700.1385905800282 908.7004311094406 -112.09506204124591 103.03303395453827 251.13105050850936 -233.04383788556243C614.3571630582649 -569.1207097256629 1043.3467496587948 -704.4685537230454 1218.235608529396 -426.52437480471565C1393.1244673999963 -148.58019588638604 1453.8236856371514 765.0113490823228 1090.5975730873959 1101.0882209224233 "></path><path d="M1190.020694883312 -398.02340380525345C1358.8789034480296 -129.66350691859031 1417.4850451942484 752.4248813270594 1066.7839710082776 1076.9128955175013C716.082896822307 1401.4009097079434 -324.48625264462703 1427.8789611955344 -493.34446120934496 1159.5190643088708C-662.2026697740628 891.1591674222079 -94.4365042883419 113.27340465195721 256.2645698976289 -211.21460953848475C606.9656440835995 -535.7026237289267 1021.1624863185941 -666.3833006919166 1190.020694883312 -398.02340380525345C1358.8789034480296 -129.66350691859031 1417.4850451942484 752.4248813270594 1066.7839710082776 1076.9128955175013 "></path><path d="M1161.8055676141812 -369.5225853936819C1324.633125873016 -110.74697053868522 1381.1461911282986 739.8382609839057 1042.9701553061127 1052.737417524689C704.7941194839266 1365.6365740654724 -298.6118460734741 1391.1689808570777 -461.4394043323092 1132.3933660020812C-624.2669625911443 873.6177511470844 -76.77816015848475 123.51362276148541 261.39787566370114 -189.38553377929782C599.5739114858873 -502.2846903200811 998.9780093553461 -628.2982002486785 1161.8055676141812 -369.5225853936819C1324.633125873016 -110.74697053868522 1381.1461911282986 739.8382609839057 1042.9701553061127 1052.737417524689 "></path><path d="M1133.5905318977852 -341.0218585348447C1290.3874398507378 -91.83052571151461 1344.8074286150832 727.2515490880173 1019.156431156682 1028.5618479791422C693.5054336982807 1329.872146870267 -272.7373479495867 1354.4589089658866 -429.53425590253903 1105.2675761425567C-586.3311638554914 856.0762433192267 -59.11972447589346 133.75374931827946 266.53127298250797 -167.55654957284514C592.1822704409092 -468.86684846396986 976.7936239448329 -590.2131913581748 1133.5905318977852 -341.0218585348447C1290.3874398507378 -91.83052571151461 1344.8074286150832 727.2515490880173 1019.156431156682 1028.5618479791422 "></path><path d="M1105.3755266989672 -312.520979088117C1256.1417843460367 -72.91392829645338 1308.4686966194458 714.6649897800196 995.3427375248293 1004.3864310214856C682.2167784302128 1294.1078722629518 -246.8628193081213 1317.7489896625866 -397.6290769551908 1078.1419388709228C-548.3953346022604 838.5348880792592 -41.46125827572382 143.99402846296402 271.6647008188929 -145.72741277850207C584.7906599135094 -435.448854019968 954.6092690518974 -552.1280298797805 1105.3755266989672 -312.520979088117C1256.1417843460367 -72.91392829645338 1308.4686966194458 714.6649897800196 995.3427375248293 1004.3864310214856 "></path><path d="M1077.1604909825708 -284.0201301589673C1221.8960983237578 -53.99736139897027 1272.1299341062308 702.0783999544437 971.5290133753988 980.2109835462511C670.9280926445667 1258.3435671380585 -220.98832118423388 1281.039039841708 -365.72392852542066 1051.016271081711C-510.45953586660744 820.993502321714 -23.802822593132305 154.23427709007046 276.79809813769964 -123.8983065017369C577.3990188685316 -402.0308900935443 932.4248836413842 -514.0428989189643 1077.1604909825708 -284.0201301589673C1221.8960983237578 -53.99736139897027 1272.1299341062308 702.0783999544437 971.5290133753988 980.2109835462511 "></path><path d="M1048.945485783753 -255.51928122981758C1187.650442819057 -35.08079450148716 1235.7912021105935 689.4918101288681 947.7153197435462 956.0355360710168C659.6394373764988 1222.5792620131656 -195.1137925427684 1244.3290900208294 -333.8187495780724 1023.890603292499C-472.52370661337636 803.4521165641686 -6.144356392962777 164.4745257171769 281.9315259740846 -102.06920022497184C570.0074083411318 -368.6129261671206 910.2405287484487 -475.957767958148 1048.945485783753 -255.51928122981758C1187.650442819057 -35.08079450148716 1235.7912021105935 689.4918101288681 947.7153197435462 956.0355360710168 "></path><path d="M1020.7304500673567 -227.01843230066788C1153.4047567967777 -16.164227604004054 1199.4524395973783 676.905220303292 923.9015955941154 931.8600885957824C648.3507515908527 1186.8149568882723 -169.23929441888106 1207.619140199951 -301.9136011483023 996.764935503287C-434.58790787772347 785.9107308066232 11.514079289628626 174.71477434428334 287.0649232928914 -80.24009394820678C562.615767296154 -335.19496224069684 888.0561433379355 -437.8726369973318 1020.7304500673567 -227.01843230066788C1153.4047567967777 -16.164227604004054 1199.4524395973783 676.905220303292 923.9015955941154 931.8600885957824 "></path><path d="M992.5155059036947 -198.5176444066745C1119.1591623272332 2.7522782583228036 1163.1137686368972 664.3185694425604 900.0879629974193 907.6845800853916C637.062157357941 1151.0505907282231 -143.36470474225933 1170.9091293439162 -270.0083611657978 969.6392066789188C-396.6520175893362 768.3692840139215 29.172606524954517 184.95496193623353 292.1984121644325 -58.41104870659797C555.2242178039105 -301.7770593494294 865.8718494801565 -399.78756707167184 992.5155059036947 -198.5176444066745C1119.1591623272332 2.7522782583228036 1163.1137686368972 664.3185694425604 900.0879629974193 907.6845800853916 "></path><path d="M964.3004701872987 -170.01676495994667C1084.9134763049544 21.66887567338415 1126.775006123682 651.7320101345626 876.2742388479887 883.5091631277353C625.7734715722952 1115.2863161209082 -117.49020661837199 1134.1992100406162 -238.10321273602761 942.5135694072853C-358.7162188536833 750.8279287739542 46.831042207546034 195.1952410809181 297.3318094832392 -36.58191191225478C547.8325767589326 -268.35906490542754 843.687464069643 -361.7024055932775 964.3004701872987 -170.01676495994667C1084.9134763049544 21.66887567338415 1126.775006123682 651.7320101345626 876.2742388479887 883.5091631277353 "></path><path d="M936.0854649884807 -141.51591603079697C1050.6678208002536 40.58544257086737 1090.4362741280447 639.145420308987 852.4605452161359 859.333715652501C614.4848163042273 1079.5220109960153 -91.61567797690657 1097.4892602197376 -206.19803378867937 915.3879016180733C-320.7803896004522 733.286543016409 64.48950840771556 205.43548970802453 302.4652373196243 -14.752805635489608C540.4409662315329 -234.9411009790038 821.5031091767078 -323.6172746324613 936.0854649884807 -141.51591603079697C1050.6678208002536 40.58544257086737 1090.4362741280447 639.145420308987 852.4605452161359 859.333715652501 "></path><path d="M907.8704292720845 -113.01509761922546C1016.4221347779746 59.501978950772354 1054.0975116148293 626.5587999658328 828.6468210667053 835.1582376596884C603.1961305185814 1043.7576753535438 -65.74117985301916 1060.779279881281 -174.29288535890925 888.2622033112832C-282.84459086479933 715.7451267412855 82.14794409030696 215.67570781755285 307.598634638431 7.076270123697213C533.049325186555 -201.5231675701582 799.3187237661944 -285.53217418922316 907.8704292720845 -113.01509761922546C1016.4221347779746 59.501978950772354 1054.0975116148293 626.5587999658328 828.6468210667053 835.1582376596884 "></path><path d="M879.6553935556883 -84.51427920765389C982.1764487556954 78.41851533067734 1017.7587491016138 613.972179622679 804.8330969172746 810.9827596668758C591.9074447329353 1007.9933397110728 -39.86668172913181 1024.0692995428244 -142.38773692913912 861.1365050044931C-244.90879212914643 698.203710466162 99.80637977289848 225.91592592708116 312.7320319572377 28.905345882884262C525.6576841415772 -168.10523416131264 777.1343383556809 -247.4470737459851 879.6553935556883 -84.51427920765389C982.1764487556954 78.41851533067734 1017.7587491016138 613.972179622679 804.8330969172746 810.9827596668758 "></path><path d="M851.440327321714 -56.01343027850419C947.9307322158384 97.33508222816045 981.4199560708205 601.3855897971032 781.0193422502657 786.8073121916414C580.6187284297112 972.2290345861798 -13.992214122822588 987.359349721946 -110.48261901694713 834.0108372152813C-206.9730239110716 680.6623247086168 117.46478493791176 236.1561745541876 317.8653987584664 50.73445215964932C518.2660125790211 -134.6872702348889 754.9499224275894 -209.36194278516888 851.440327321714 -56.01343027850419C947.9307322158384 97.33508222816045 981.4199560708205 601.3855897971032 781.0193422502657 786.8073121916414 "></path><path d="M823.2253221228957 -27.512611866932673C913.6850767111375 116.25161860806543 945.0812240751832 588.7989694539492 757.2056486184133 762.631834198829C569.3300731616432 936.4646989437085 11.882314518642886 950.6493693834893 -78.57744006959888 806.8851389084912C-169.0371946578406 663.1209084334932 135.1232511380813 246.39639266371591 322.9988265948514 72.56352791883637C510.87440205162136 -101.26933682604329 732.7655675346541 -171.27684234193077 823.2253221228957 -27.512611866932673C913.6850767111375 116.25161860806543 945.0812240751832 588.7989694539492 757.2056486184133 762.631834198829 "></path><path d="M795.0103169240779 0.9882980973732742C879.4394212064367 135.16824654070479 908.7424920795461 576.2124406635297 733.3919549865607 738.4564477587505C558.0414178935754 900.7004548539717 37.75684316010836 913.9394805977672 -46.672261122250575 779.7595321544354C-131.1013654046095 645.5795837111041 152.78171733825093 256.6367023259786 328.13225443123633 94.39269523075768C503.4827915242216 -67.85131186446336 710.581212641719 -133.1916503459583 795.0103169240779 0.9882980973732742C879.4394212064367 135.16824654070479 908.7424920795461 576.2124406635297 733.3919549865607 738.4564477587505 "></path><path d="M766.7952812076817 29.48908599136672C845.193735184158 154.08475240303176 872.4037295663306 563.6257898027977 709.5782308371299 714.28093924836C546.7527321079294 864.9360886939226 63.63134128399571 877.2294697417324 -14.767112692480453 752.6338033300674C-93.16556666895661 628.0381369184024 170.44015302084233 266.8768899179288 333.26565175004305 116.22174047236649C496.09115047924365 -34.43340897319587 688.3968272312054 -95.10658042029831 766.7952812076817 29.48908599136672C845.193735184158 154.08475240303176 872.4037295663306 563.6257898027977 709.5782308371299 714.28093924836 "></path><path d="M738.5803065264417 57.98993492051636C810.948110197035 173.00131930051487 836.0650280882717 551.0391999772219 685.7645677228556 690.1054917731256C535.4641073574396 829.1717835690292 89.50590044303931 840.519519920854 17.13809677244592 725.5081355408556C-55.22970689814747 610.496751160857 188.0986497385901 277.11713854503523 338.399110104006 138.05084674913155C488.69957046942204 -1.015445046772129 666.2125028558484 -57.02144945948214 738.5803065264417 57.98993492051636C810.948110197035 173.00131930051487 836.0650280882717 551.0391999772219 685.7645677228556 690.1054917731256 "></path><path d="M710.3652402924674 86.49072281450981C776.7023936571779 191.91782516284172 799.7262350574783 538.4525491164898 661.9508130558468 665.9299832627349C524.1753910542154 793.4074174089799 115.38036804934853 803.8095090648194 49.04321468463792 698.3824067164874C-17.2939386800727 592.9553043681553 205.75705490360338 287.3573261369854 343.5324769052347 159.87989199074036C481.30789890686606 32.4024578444953 644.0280869277568 -18.936379533822162 710.3652402924674 86.49072281450981C776.7023936571779 191.91782516284172 799.7262350574783 538.4525491164898 661.9508130558468 665.9299832627349 "></path><path d="M682.1502045760712 114.9915717436595C742.4567076348991 210.83439206032494 763.3874725442629 525.8659592909141 638.1370889064162 641.7545357875005C512.8867052685695 757.6431122840868 141.25486617323588 767.0995592439408 80.94836311440804 671.2567389272755C20.641860055580253 575.4139186106099 223.4154905861949 297.59757476409186 348.66587422404154 181.70899826750542C473.9162578618882 65.82042177091904 621.8437015172434 19.148751426994068 682.1502045760712 114.9915717436595C742.4567076348991 210.83439206032494 763.3874725442629 525.8659592909141 638.1370889064162 641.7545357875005 "></path><path d="M653.9351688596751 143.49245119038727C708.2110216126201 229.75098947538618 727.0487100310474 513.2793999829164 614.3233647569855 617.5791188298442C501.5980194829235 721.8788376767719 167.12936429712323 730.3896399406404 112.85351154417816 644.1311016556416C58.57765879123315 557.8725633706428 241.0739262687863 307.8378539087764 353.7992715428484 203.5381350618486C466.52461681691034 99.2384162149209 599.65931610673 57.23391290538842 653.9351688596751 143.49245119038727C708.2110216126201 229.75098947538618 727.0487100310474 513.2793999829164 614.3233647569855 617.5791188298442 "></path><path d="M625.7201941784351 171.99326960195884C673.9653966254973 248.66752585529116 690.7100085529884 500.69277963976253 590.509701642711 593.4036408370316C490.3093947324337 686.1145020343008 193.00392345616683 693.679659602184 144.7587210091046 617.0054033488516C96.5135185620423 540.3311470955193 258.732422986534 318.07807201830474 358.93272989681134 225.3672108210356C459.13303680708873 132.65634962376646 577.4749917313728 95.31901334862653 625.7201941784351 171.99326960195884C673.9653966254973 248.66752585529116 690.7100085529884 500.69277963976253 590.509701642711 593.4036408370316 "></path><path d="M597.5051584620389 200.49411853110848C639.7197106032183 267.58409275277427 654.371246039773 488.1061898141868 566.6959774932803 569.2281933617971C479.02070894678764 650.3501969094077 218.87842158005418 656.9697097813055 176.6638694388747 589.8797355596396C134.44931729769525 522.7897613379739 276.39085866912546 328.3183206454112 364.06612721561817 247.19631709780072C451.74139576211087 166.0743135501902 555.2906063208595 133.4041443094427 597.5051584620389 200.49411853110848C639.7197106032183 267.58409275277427 654.371246039773 488.1061898141868 566.6959774932803 569.2281933617971 "></path><path d="M569.2901380044318 228.99496746025818C605.4740398397284 286.50065965025743 618.0324987853468 475.51959998861093 542.8822686026388 545.0527458865628C467.73203841993075 614.5858917845146 244.7529349627306 620.259759960427 208.5690331274339 562.7540677704278C172.3851312921372 505.2483755804285 294.049309610506 338.5585692725176 369.19953979321394 269.0254233745658C444.34976997592196 199.49227747661394 533.1062361691352 171.48927527025893 569.2901380044318 228.99496746025818C605.4740398397284 286.50065965025743 618.0324987853468 475.51959998861093 542.8822686026388 545.0527458865628 "></path><path d="M541.0751175468247 257.4958163894079C571.2283690762386 305.4172265477406 581.6937515309205 462.9330101630352 519.0685597119972 520.8772984113284C456.44336789307386 578.8215866596215 270.627448345407 583.5498101395485 240.47419681599308 535.6283999812158C210.32094528657916 487.7069898228831 311.7077605518865 348.79881789962405 374.33295237080983 290.85452965133084C436.95814418973316 232.91024140303767 510.9218660174108 209.57440623107516 541.0751175468247 257.4958163894079C571.2283690762386 305.4172265477406 581.6937515309205 462.9330101630352 519.0685597119972 520.8772984113284 "></path><path d="M512.8600818304285 285.99661954219033C536.9826830539596 324.3337476688565 545.3549890177051 450.34637456109226 495.2548355625664 496.70180515972675C445.1546821074278 543.0572357583613 296.50194646929435 546.839814542303 272.3793452457632 508.50268641563673C248.2567440222321 470.1655582889706 329.3661962344779 359.0390207503633 379.4663496896166 312.68359015172877C429.5665031447553 266.32815955309417 488.7374806068974 247.6594914155242 512.8600818304285 285.99661954219033C536.9826830539596 324.3337476688565 545.3549890177051 450.34637456109226 495.2548355625664 496.70180515972675 "></path><path d="M484.6450613728214 314.4974837301291C502.7370122904697 343.2503298251287 509.0162417632789 437.75979999430547 471.44112667192485 472.52637294328133C433.86601158057084 507.2929458922573 322.37645985197076 510.12987998021345 304.2845089343224 481.3770338852139C286.19255801667407 452.62418779021425 347.02464717585843 369.2792846362588 384.59976226721244 334.5127116872829C422.17487735856645 299.74613873830697 466.55311045517306 285.7446376351295 484.6450613728214 314.4974837301291C502.7370122904697 343.2503298251287 509.0162417632789 437.75979999430547 471.44112667192485 472.52637294328133 "></path><path d="M456.43004091521425 342.9983174004897C468.4913415269798 362.1668814638228 472.67749450885253 425.17319490994066 447.6274177812832 448.3509102092579C422.5773410537139 471.5286255085752 348.2509732346472 473.419914900546 336.18967262288163 454.2513508372129C324.128372011116 435.08278677387983 364.68309811723896 379.5195180045762 389.73317484480833 356.3418027052589C414.78325157237765 333.16408740594164 444.3687403034487 323.8297533371566 456.43004091521425 342.9983174004897C468.4913415269798 362.1668814638228 472.67749450885253 425.17319490994066 447.6274177812832 448.3509102092579 "></path><path d="M428.2150204576071 371.4991510708503C434.2456707634899 381.0834331025169 436.33874725442627 412.5865898255758 423.81370889064164 424.1754474752344C411.28867052685695 435.7643051248931 374.1254866173236 436.7099498208785 368.0948363114408 427.1256677892119C362.06418600555804 417.54138575754536 382.3415490586195 389.75975137289356 394.86658742240417 378.17089372323494C407.3916257861888 366.58203607357626 422.18437015172435 361.91486903918377 428.2150204576071 371.4991510708503C434.2456707634899 381.0834331025169 436.33874725442627 412.5865898255758 423.81370889064164 424.1754474752344 "></path></g></svg>